<?xml version="1.0" encoding="utf-8"?>
<svg xmlns="http://www.w3.org/2000/svg" xmlns:xlink="http://www.w3.org/1999/xlink" style="margin: auto; background: none; display: block; shape-rendering: auto;" width="204px" height="204px" viewBox="0 0 100 100" preserveAspectRatio="xMidYMid">
<g transform="rotate(0 50 50)">
  <rect x="35.5" y="14.5" rx="14.5" ry="3.5" width="29" height="7" fill="#81dc4c">
    <animate attributeName="opacity" values="1;0" keyTimes="0;1" dur="1.5384615384615383s" begin="-1.471571906354515s" repeatCount="indefinite"></animate>
  </rect>
</g><g transform="rotate(15.652173913043478 50 50)">
  <rect x="35.5" y="14.5" rx="14.5" ry="3.5" width="29" height="7" fill="#81dc4c">
    <animate attributeName="opacity" values="1;0" keyTimes="0;1" dur="1.5384615384615383s" begin="-1.4046822742474916s" repeatCount="indefinite"></animate>
  </rect>
</g><g transform="rotate(31.304347826086957 50 50)">
  <rect x="35.5" y="14.5" rx="14.5" ry="3.5" width="29" height="7" fill="#81dc4c">
    <animate attributeName="opacity" values="1;0" keyTimes="0;1" dur="1.5384615384615383s" begin="-1.3377926421404682s" repeatCount="indefinite"></animate>
  </rect>
</g><g transform="rotate(46.95652173913044 50 50)">
  <rect x="35.5" y="14.5" rx="14.5" ry="3.5" width="29" height="7" fill="#81dc4c">
    <animate attributeName="opacity" values="1;0" keyTimes="0;1" dur="1.5384615384615383s" begin="-1.2709030100334446s" repeatCount="indefinite"></animate>
  </rect>
</g><g transform="rotate(62.608695652173914 50 50)">
  <rect x="35.5" y="14.5" rx="14.5" ry="3.5" width="29" height="7" fill="#81dc4c">
    <animate attributeName="opacity" values="1;0" keyTimes="0;1" dur="1.5384615384615383s" begin="-1.2040133779264213s" repeatCount="indefinite"></animate>
  </rect>
</g><g transform="rotate(78.26086956521739 50 50)">
  <rect x="35.5" y="14.5" rx="14.5" ry="3.5" width="29" height="7" fill="#81dc4c">
    <animate attributeName="opacity" values="1;0" keyTimes="0;1" dur="1.5384615384615383s" begin="-1.137123745819398s" repeatCount="indefinite"></animate>
  </rect>
</g><g transform="rotate(93.91304347826087 50 50)">
  <rect x="35.5" y="14.5" rx="14.5" ry="3.5" width="29" height="7" fill="#81dc4c">
    <animate attributeName="opacity" values="1;0" keyTimes="0;1" dur="1.5384615384615383s" begin="-1.0702341137123745s" repeatCount="indefinite"></animate>
  </rect>
</g><g transform="rotate(109.56521739130434 50 50)">
  <rect x="35.5" y="14.5" rx="14.5" ry="3.5" width="29" height="7" fill="#81dc4c">
    <animate attributeName="opacity" values="1;0" keyTimes="0;1" dur="1.5384615384615383s" begin="-1.0033444816053512s" repeatCount="indefinite"></animate>
  </rect>
</g><g transform="rotate(125.21739130434783 50 50)">
  <rect x="35.5" y="14.5" rx="14.5" ry="3.5" width="29" height="7" fill="#81dc4c">
    <animate attributeName="opacity" values="1;0" keyTimes="0;1" dur="1.5384615384615383s" begin="-0.9364548494983277s" repeatCount="indefinite"></animate>
  </rect>
</g><g transform="rotate(140.8695652173913 50 50)">
  <rect x="35.5" y="14.5" rx="14.5" ry="3.5" width="29" height="7" fill="#81dc4c">
    <animate attributeName="opacity" values="1;0" keyTimes="0;1" dur="1.5384615384615383s" begin="-0.8695652173913043s" repeatCount="indefinite"></animate>
  </rect>
</g><g transform="rotate(156.52173913043478 50 50)">
  <rect x="35.5" y="14.5" rx="14.5" ry="3.5" width="29" height="7" fill="#81dc4c">
    <animate attributeName="opacity" values="1;0" keyTimes="0;1" dur="1.5384615384615383s" begin="-0.8026755852842808s" repeatCount="indefinite"></animate>
  </rect>
</g><g transform="rotate(172.17391304347825 50 50)">
  <rect x="35.5" y="14.5" rx="14.5" ry="3.5" width="29" height="7" fill="#81dc4c">
    <animate attributeName="opacity" values="1;0" keyTimes="0;1" dur="1.5384615384615383s" begin="-0.7357859531772575s" repeatCount="indefinite"></animate>
  </rect>
</g><g transform="rotate(187.82608695652175 50 50)">
  <rect x="35.5" y="14.5" rx="14.5" ry="3.5" width="29" height="7" fill="#81dc4c">
    <animate attributeName="opacity" values="1;0" keyTimes="0;1" dur="1.5384615384615383s" begin="-0.6688963210702341s" repeatCount="indefinite"></animate>
  </rect>
</g><g transform="rotate(203.47826086956522 50 50)">
  <rect x="35.5" y="14.5" rx="14.5" ry="3.5" width="29" height="7" fill="#81dc4c">
    <animate attributeName="opacity" values="1;0" keyTimes="0;1" dur="1.5384615384615383s" begin="-0.6020066889632106s" repeatCount="indefinite"></animate>
  </rect>
</g><g transform="rotate(219.1304347826087 50 50)">
  <rect x="35.5" y="14.5" rx="14.5" ry="3.5" width="29" height="7" fill="#81dc4c">
    <animate attributeName="opacity" values="1;0" keyTimes="0;1" dur="1.5384615384615383s" begin="-0.5351170568561873s" repeatCount="indefinite"></animate>
  </rect>
</g><g transform="rotate(234.7826086956522 50 50)">
  <rect x="35.5" y="14.5" rx="14.5" ry="3.5" width="29" height="7" fill="#81dc4c">
    <animate attributeName="opacity" values="1;0" keyTimes="0;1" dur="1.5384615384615383s" begin="-0.46822742474916385s" repeatCount="indefinite"></animate>
  </rect>
</g><g transform="rotate(250.43478260869566 50 50)">
  <rect x="35.5" y="14.5" rx="14.5" ry="3.5" width="29" height="7" fill="#81dc4c">
    <animate attributeName="opacity" values="1;0" keyTimes="0;1" dur="1.5384615384615383s" begin="-0.4013377926421404s" repeatCount="indefinite"></animate>
  </rect>
</g><g transform="rotate(266.0869565217391 50 50)">
  <rect x="35.5" y="14.5" rx="14.5" ry="3.5" width="29" height="7" fill="#81dc4c">
    <animate attributeName="opacity" values="1;0" keyTimes="0;1" dur="1.5384615384615383s" begin="-0.33444816053511706s" repeatCount="indefinite"></animate>
  </rect>
</g><g transform="rotate(281.7391304347826 50 50)">
  <rect x="35.5" y="14.5" rx="14.5" ry="3.5" width="29" height="7" fill="#81dc4c">
    <animate attributeName="opacity" values="1;0" keyTimes="0;1" dur="1.5384615384615383s" begin="-0.26755852842809363s" repeatCount="indefinite"></animate>
  </rect>
</g><g transform="rotate(297.39130434782606 50 50)">
  <rect x="35.5" y="14.5" rx="14.5" ry="3.5" width="29" height="7" fill="#81dc4c">
    <animate attributeName="opacity" values="1;0" keyTimes="0;1" dur="1.5384615384615383s" begin="-0.2006688963210702s" repeatCount="indefinite"></animate>
  </rect>
</g><g transform="rotate(313.04347826086956 50 50)">
  <rect x="35.5" y="14.5" rx="14.5" ry="3.5" width="29" height="7" fill="#81dc4c">
    <animate attributeName="opacity" values="1;0" keyTimes="0;1" dur="1.5384615384615383s" begin="-0.13377926421404682s" repeatCount="indefinite"></animate>
  </rect>
</g><g transform="rotate(328.69565217391306 50 50)">
  <rect x="35.5" y="14.5" rx="14.5" ry="3.5" width="29" height="7" fill="#81dc4c">
    <animate attributeName="opacity" values="1;0" keyTimes="0;1" dur="1.5384615384615383s" begin="-0.06688963210702341s" repeatCount="indefinite"></animate>
  </rect>
</g><g transform="rotate(344.3478260869565 50 50)">
  <rect x="35.5" y="14.5" rx="14.5" ry="3.5" width="29" height="7" fill="#81dc4c">
    <animate attributeName="opacity" values="1;0" keyTimes="0;1" dur="1.5384615384615383s" begin="0s" repeatCount="indefinite"></animate>
  </rect>
</g>
<!-- [ldio] generated by https://loading.io/ --></svg>